{
  "accessors": [
    {
      "bufferView": 2,
      "componentType": 5126,
      "count": 1857,
      "max": [
        2.7326655387878418,
        14.71973991394043,
        2.8153610229492188
      ],
      "min": [
        -2.9860382080078125,
        0.57020950317382812,
        -1.2583600282669067
      ],
      "type": "VEC3"
    },
    {
      "bufferView": 2,
      "byteOffset": 22284,
      "componentType": 5126,
      "count": 1857,
      "max": [
        0.99822014570236206,
        0.99876528978347778,
        1
      ],
      "min": [
        -0.99979126453399658,
        -1,
        -1
      ],
      "type": "VEC3"
    },
    {
      "bufferView": 3,
      "componentType": 5126,
      "count": 1857,
      "max": [
        0.99999880790710449,
        0.99999958276748657,
        1,
        1
      ],
      "min": [
        -0.99934667348861694,
        -0.99998855590820312,
        -0.99966192245483398,
        -1
      ],
      "type": "VEC4"
    },
    {
      "bufferView": 1,
      "componentType": 5126,
      "count": 1857,
      "max": [
        0.9959414005279541,
        0.98947787284851074
      ],
      "min": [
        0.00054326653480529785,
        0.00092184543609619141
      ],
      "type": "VEC2"
    },
    {
      "bufferView": 0,
      "componentType": 5125,
      "count": 7392,
      "max": [
        1856
      ],
      "min": [
        0
      ],
      "type": "SCALAR"
    }
  ],
  "asset": {
    "extras": {
      "author": "Ingenuitee (https://sketchfab.com/Ingenuitee)",
      "license": "CC-BY-4.0 (http://creativecommons.org/licenses/by/4.0/)",
      "source": "https://sketchfab.com/3d-models/sunflower-13c8a69f19d04c47bae48a083b748103",
      "title": "Sunflower"
    },
    "generator": "Sketchfab-6.63.0",
    "version": "2.0"
  },
  "bufferViews": [
    {
      "buffer": 0,
      "byteLength": 29568,
      "byteOffset": 0,
      "name": "floatBufferViews",
      "target": 34963
    },
    {
      "buffer": 0,
      "byteLength": 14856,
      "byteOffset": 29568,
      "byteStride": 8,
      "name": "floatBufferViews",
      "target": 34962
    },
    {
      "buffer": 0,
      "byteLength": 44568,
      "byteOffset": 44424,
      "byteStride": 12,
      "name": "floatBufferViews",
      "target": 34962
    },
    {
      "buffer": 0,
      "byteLength": 29712,
      "byteOffset": 88992,
      "byteStride": 16,
      "name": "floatBufferViews",
      "target": 34962
    }
  ],
  "buffers": [
    {
      "byteLength": 118704,
      "uri": "scene.bin"
    }
  ],
  "images": [
    {
      "uri": "textures/Sunflower1_baseColor.png"
    }
  ],
  "materials": [
    {
      "doubleSided": true,
      "name": "Sunflower1",
      "pbrMetallicRoughness": {
        "baseColorFactor": [
          1,
          1,
          1,
          1
        ],
        "baseColorTexture": {
          "index": 0,
          "texCoord": 0
        },
        "metallicFactor": 0,
        "roughnessFactor": 0.5078125
      }
    }
  ],
  "meshes": [
    {
      "name": "Sunflower_Sunflower1_0",
      "primitives": [
        {
          "attributes": {
            "NORMAL": 1,
            "POSITION": 0,
            "TANGENT": 2,
            "TEXCOORD_0": 3
          },
          "indices": 4,
          "material": 0,
          "mode": 4
        }
      ]
    }
  ],
  "nodes": [
    {
      "children": [
        1
      ],
      "name": "RootNode (gltf orientation matrix)",
      "rotation": [
        -0.70710678118654746,
        -0,
        -0,
        0.70710678118654757
      ]
    },
    {
      "children": [
        2
      ],
      "name": "RootNode (model correction matrix)"
    },
    {
      "children": [
        3
      ],
      "matrix": [
        1,
        0,
        0,
        0,
        0,
        0,
        1,
        0,
        0,
        -1,
        0,
        0,
        0,
        0,
        0,
        1
      ],
      "name": "50ed35b4878d4346ac5b9a9f0b142e15.fbx"
    },
    {
      "children": [
        4
      ],
      "name": "RootNode"
    },
    {
      "children": [
        5
      ],
      "name": "Sunflower"
    },
    {
      "mesh": 0,
      "name": "Sunflower_Sunflower1_0"
    }
  ],
  "samplers": [
    {
      "magFilter": 9729,
      "minFilter": 9987,
      "wrapS": 10497,
      "wrapT": 10497
    }
  ],
  "scene": 0,
  "scenes": [
    {
      "name": "OSG_Scene",
      "nodes": [
        0
      ]
    }
  ],
  "textures": [
    {
      "sampler": 0,
      "source": 0
    }
  ]
}

