{
  "accessors": [
    {
      "bufferView": 1,
      "componentType": 5126,
      "count": 684,
      "max": [
        1.0375399589538574,
        1.0535399913787842,
        0.25723999738693237
      ],
      "min": [
        -1.0375399589538574,
        -1.0535399913787842,
        0.029999999329447746
      ],
      "type": "VEC3"
    },
    {
      "bufferView": 1,
      "byteOffset": 8208,
      "componentType": 5126,
      "count": 684,
      "max": [
        0.90450143814086914,
        0.89076095819473267,
        1
      ],
      "min": [
        -0.90450143814086914,
        -0.89076095819473267,
        -1
      ],
      "type": "VEC3"
    },
    {
      "bufferView": 0,
      "componentType": 5125,
      "count": 1068,
      "max": [
        683
      ],
      "min": [
        0
      ],
      "type": "SCALAR"
    }
  ],
  "asset": {
    "extras": {
      "author": "Jiří Kuba (https://sketchfab.com/kuba.jirka)",
      "license": "CC-BY-4.0 (http://creativecommons.org/licenses/by/4.0/)",
      "source": "https://sketchfab.com/models/ff9a7f86c2a342de88fbd44cebf6cb48",
      "title": "Frisbee"
    },
    "generator": "Sketchfab-3.18.7",
    "version": "2.0"
  },
  "bufferViews": [
    {
      "buffer": 0,
      "byteLength": 4272,
      "byteOffset": 0,
      "name": "floatBufferViews",
      "target": 34963
    },
    {
      "buffer": 0,
      "byteLength": 16416,
      "byteOffset": 4272,
      "byteStride": 12,
      "name": "floatBufferViews",
      "target": 34962
    }
  ],
  "buffers": [
    {
      "byteLength": 20688,
      "uri": "scene.bin"
    }
  ],
  "materials": [
    {
      "doubleSided": true,
      "emissiveFactor": [
        0,
        0,
        0
      ],
      "name": "FrisbeeMaterial",
      "pbrMetallicRoughness": {
        "baseColorFactor": [
          0.80000126360000001,
          0.69997125859999998,
          0.00062634560000000004,
          1
        ],
        "metallicFactor": 0,
        "roughnessFactor": 0.59999999999999998
      }
    }
  ],
  "meshes": [
    {
      "name": "Frisbee_0",
      "primitives": [
        {
          "attributes": {
            "NORMAL": 1,
            "POSITION": 0
          },
          "indices": 2,
          "material": 0,
          "mode": 4
        }
      ]
    }
  ],
  "nodes": [
    {
      "children": [
        1
      ],
      "name": "RootNode (gltf orientation matrix)",
      "rotation": [
        -0.70710678118654746,
        -0,
        -0,
        0.70710678118654757
      ]
    },
    {
      "children": [
        2
      ],
      "name": "RootNode (model correction matrix)"
    },
    {
      "children": [
        3
      ],
      "name": "Root"
    },
    {
      "children": [
        4
      ],
      "name": "Frisbee"
    },
    {
      "mesh": 0,
      "name": "Frisbee_0"
    }
  ],
  "scene": 0,
  "scenes": [
    {
      "name": "OSG_Scene",
      "nodes": [
        0
      ]
    }
  ]
}

